<svg width="1185" height="224" viewBox="0 0 1185 224" fill="none" xmlns="http://www.w3.org/2000/svg">
<path d="M107.682 211.091C89.3053 211.091 72.5176 206.97 57.3185 198.726C42.2053 190.397 30.2693 178.718 21.5106 163.691C12.8376 148.664 8.50118 131.489 8.50118 112.169C8.50118 92.7618 12.8376 75.5448 21.5106 60.5175C30.2693 45.4043 42.2053 33.7259 57.3185 25.4823C72.5176 17.1529 89.3053 12.9882 107.682 12.9882C126.058 12.9882 142.76 17.1529 157.787 25.4823C172.9 33.7259 184.836 45.3613 193.595 60.3887C202.354 75.416 206.733 92.676 206.733 112.169C206.733 131.489 202.354 148.664 193.595 163.691C184.836 178.718 172.9 190.397 157.787 198.726C142.76 206.97 126.058 211.091 107.682 211.091ZM107.682 177.344C118.759 177.344 128.935 174.768 138.209 169.616C147.483 164.464 154.824 156.95 160.234 147.075C165.73 137.2 168.478 125.521 168.478 112.04C168.478 98.4722 165.73 86.7509 160.234 76.8758C154.824 67.0007 147.483 59.487 138.209 54.3348C128.935 49.1826 118.759 46.6065 107.682 46.6065C96.5184 46.6065 86.2998 49.1826 77.0258 54.3348C67.7518 59.487 60.3669 67.0007 54.8712 76.8758C49.3755 86.7509 46.6277 98.4722 46.6277 112.04C46.6277 125.521 49.3326 137.243 54.7424 147.204C60.2381 157.079 67.623 164.592 76.897 169.745C86.2569 174.811 96.5184 177.344 107.682 177.344ZM222.004 16.0795H349.908V48.6674H260.002V97.4847H343.468V129.171H260.002V208H222.004V16.0795ZM362.732 16.0795H490.636V48.6674H400.73V97.4847H484.196V129.171H400.73V208H362.732V16.0795ZM530.381 16.0795H568.636L516.985 208H478.73L530.381 16.0795ZM669.048 211.091C650.586 211.091 633.97 206.97 619.2 198.726C604.516 190.397 593.009 178.761 584.68 163.82C576.351 148.792 572.186 131.575 572.186 112.169C572.186 92.2466 576.436 74.8149 584.938 59.8734C593.439 44.8461 605.16 33.2965 620.102 25.2247C635.129 17.067 652.131 12.9882 671.109 12.9882C686.995 12.9882 701.55 15.8219 714.774 21.4894C728.084 27.0709 738.946 34.971 747.362 45.1896C755.777 55.3223 760.929 67.0007 762.818 80.2247H724.305C722.588 73.5269 719.282 67.6447 714.387 62.5784C709.579 57.512 703.482 53.6049 696.097 50.857C688.798 48.0233 680.683 46.6065 671.753 46.6065C659.301 46.6065 648.439 49.3114 639.165 54.7212C629.977 60.1311 622.849 67.7735 617.783 77.6486C612.803 87.4379 610.312 98.9445 610.312 112.169C610.312 125.478 612.803 137.028 617.783 146.817C622.849 156.607 630.063 164.163 639.422 169.487C648.868 174.811 659.945 177.473 672.654 177.473C683.216 177.473 692.533 175.67 700.605 172.063C708.677 168.457 715.031 163.39 719.668 156.864C724.391 150.252 726.967 142.567 727.397 133.808H745.945V145.787C745.945 158.152 742.725 169.315 736.284 179.276C729.844 189.151 720.785 196.923 709.106 202.59C697.514 208.258 684.161 211.091 669.048 211.091ZM733.451 135.74H677.034V106.63H739.762C747.748 106.63 753.845 108.734 758.052 112.941C762.26 117.063 764.364 123.117 764.364 131.103V208H733.451V135.74ZM783.628 16.0795H863.23C876.883 16.0795 888.734 18.2692 898.78 22.6486C908.913 27.028 916.684 33.2965 922.094 41.4542C927.504 49.5261 930.209 58.9718 930.209 69.7915C930.209 80.8688 927.504 90.4433 922.094 98.5152C916.77 106.587 909.257 112.512 899.553 116.29C905.908 118.523 911.017 121.571 914.881 125.436C918.831 129.3 921.665 133.851 923.382 139.089C925.1 144.327 925.958 150.424 925.958 157.379V208H888.476V163.691C888.476 155.962 887.317 149.909 884.998 145.529C882.68 141.15 879.331 138.101 874.951 136.384C870.572 134.581 864.99 133.679 858.207 133.679H821.368V208H783.628V16.0795ZM859.623 104.054C869.327 104.054 877.055 101.521 882.808 96.4543C888.648 91.302 891.567 84.1319 891.567 74.9437C891.567 65.9273 888.605 59.0147 882.68 54.206C876.755 49.3973 868.597 46.9929 858.207 46.9929H821.368V104.054H859.623ZM988.63 208H950.632V16.0795H988.63V208ZM1010.21 16.0795H1073.97C1095.01 16.0795 1113.17 20.0296 1128.46 27.9296C1143.74 35.7438 1155.42 46.907 1163.49 61.4191C1171.65 75.8454 1175.73 92.7189 1175.73 112.04C1175.73 131.446 1171.91 148.363 1164.26 162.789C1156.62 177.215 1145.37 188.379 1130.52 196.279C1115.75 204.093 1097.84 208 1076.81 208H1010.21V16.0795ZM1071.52 175.927C1085.52 175.927 1097.46 173.437 1107.33 168.457C1117.21 163.39 1124.68 156.091 1129.74 146.56C1134.9 137.028 1137.47 125.521 1137.47 112.04C1137.47 98.644 1134.85 87.1803 1129.62 77.6486C1124.46 68.0311 1116.91 60.7322 1106.95 55.7517C1097.07 50.6853 1085.26 48.1521 1071.52 48.1521H1048.21V175.927H1071.52Z" fill="white"/>
</svg>
