<svg width="300" height="300" viewBox="0 0 300 300" fill="none" xmlns="http://www.w3.org/2000/svg">
<rect width="300" height="300" rx="24" fill="white"/>
<path d="M149 58.5C142.883 58.5 137.313 61.6409 126.172 67.9228L87.1887 89.9036C76.0477 96.1856 70.4772 99.3265 67.4188 104.5C64.3604 109.674 64.3604 115.955 64.3604 128.519V172.481C64.3604 178.742 70.7093 182.629 76.4274 180.077C93.138 172.62 110.182 165.782 127.527 159.589C128.788 159.347 130.095 159.523 131.24 160.092C132.386 160.66 133.303 161.587 133.847 162.725C134.39 163.862 134.528 165.145 134.238 166.368C133.949 167.591 133.248 168.685 132.249 169.474C116.631 178.694 101.411 188.485 86.6188 198.818C82.1765 201.922 82.4683 208.435 87.1887 211.096L126.172 233.077C137.313 239.359 142.883 242.5 149 242.5C155.117 242.5 160.688 239.359 171.829 233.077L210.812 211.096C221.953 204.814 227.523 201.674 230.582 196.5C233.64 191.326 233.64 185.045 233.64 172.481V128.519C233.64 115.955 233.64 109.674 230.582 104.5C227.523 99.3265 221.953 96.1856 210.812 89.9036L171.829 67.9228C160.688 61.6409 155.117 58.5 149 58.5Z" fill="#0065F5"/>
<path d="M179.836 103.207C182.263 96.7976 183.476 93.5927 185.601 93.4669C185.733 93.459 185.866 93.459 185.998 93.4669C188.123 93.5927 189.337 96.7976 191.763 103.207L194.854 111.372C195.339 112.654 195.582 113.296 196.053 113.773C196.085 113.805 196.118 113.838 196.152 113.869C196.644 114.326 197.305 114.562 198.626 115.033L207.038 118.033C213.642 120.388 216.944 121.566 217.073 123.628C217.082 123.757 217.082 123.885 217.073 124.014C216.944 126.076 213.642 127.254 207.038 129.609L198.626 132.609C197.305 133.08 196.644 133.316 196.152 133.773C196.118 133.804 196.085 133.836 196.053 133.869C195.582 134.346 195.339 134.988 194.854 136.27L191.763 144.435C189.337 150.844 188.123 154.049 185.998 154.175C185.866 154.183 185.733 154.183 185.601 154.175C183.476 154.049 182.263 150.844 179.836 144.435L176.745 136.27C176.26 134.988 176.017 134.346 175.546 133.869C175.514 133.836 175.481 133.804 175.447 133.773C174.955 133.316 174.295 133.08 172.973 132.609L164.561 129.609C157.957 127.254 154.655 126.076 154.526 124.014C154.518 123.885 154.518 123.757 154.526 123.628C154.655 121.566 157.957 120.388 164.561 118.033L172.973 115.033C174.295 114.562 174.955 114.326 175.447 113.869C175.481 113.838 175.514 113.805 175.546 113.773C176.017 113.296 176.26 112.654 176.745 111.372L179.836 103.207Z" fill="white"/>
</svg>
