<svg width="512" height="200" viewBox="0 0 512 200" fill="none" xmlns="http://www.w3.org/2000/svg">
<g clip-path="url(#clip0_4440_14942)">
<path fill-rule="evenodd" clip-rule="evenodd" d="M380.518 37.1883C371.999 28.6683 371.999 14.8553 380.518 6.33531C389.038 -2.18469 402.851 -2.18469 411.371 6.33531L489.61 84.5743C498.13 93.0943 498.13 106.907 489.61 115.427L411.371 193.666C402.852 202.186 389.038 202.186 380.518 193.666C371.999 185.147 371.999 171.333 380.518 162.813L421.513 121.819H90.487L131.482 162.814C140.001 171.334 140.001 185.147 131.482 193.667C122.962 202.187 109.149 202.187 100.629 193.667L22.39 115.427C13.87 106.907 13.87 93.0943 22.39 84.5743L100.629 6.33531C109.148 -2.18469 122.962 -2.18469 131.482 6.33531C140.001 14.8543 140.001 28.6683 131.482 37.1883L90.487 78.1823H421.513L380.518 37.1883Z" fill="#C9C9C9"/>
</g>
<defs>
<clipPath id="clip0_4440_14942">
<rect width="512" height="200" fill="white"/>
</clipPath>
</defs>
</svg>
