<svg width="22" height="22" viewBox="0 0 22 22" fill="none" xmlns="http://www.w3.org/2000/svg">
<path id="Vector" fill-rule="evenodd" clip-rule="evenodd" d="M10.6393 1.98376C12.4108 1.98375 13.8276 1.98414 14.9391 2.13358C16.0878 2.28804 17.038 2.61634 17.7908 3.36912C18.5435 4.12189 18.8719 5.07217 19.0263 6.22075C19.1758 7.33233 19.1761 8.74918 19.1761 10.5206V10.6394C19.1761 12.4109 19.1758 13.8277 19.0263 14.9392C18.8719 16.0879 18.5435 17.0381 17.7908 17.7909C17.038 18.5437 16.0878 18.872 14.9391 19.0265C13.8276 19.1759 12.4108 19.1763 10.6393 19.1763H10.5205C8.74906 19.1763 7.33221 19.1759 6.22063 19.0265C5.07205 18.872 4.12177 18.5437 3.369 17.7909C2.61622 17.0381 2.28791 16.0879 2.13346 14.9392C1.98402 13.8277 1.98363 12.4109 1.98364 10.6394V10.5206C1.98363 8.74918 1.98402 7.33233 2.13346 6.22075C2.28791 5.07217 2.61622 4.12189 3.369 3.36912C4.12177 2.61634 5.07205 2.28804 6.22063 2.13358C7.33221 1.98414 8.74906 1.98375 10.5205 1.98376H10.6393ZM3.72717 7.93501C3.70286 8.66995 3.70221 9.5378 3.70221 10.58C3.70221 12.4278 3.70438 13.7275 3.83652 14.7103C3.96533 15.6681 4.20379 16.1951 4.58387 16.5752C4.96398 16.9553 5.49099 17.1937 6.4488 17.3226C7.43158 17.4546 8.73128 17.4568 10.579 17.4568C12.4268 17.4568 13.7265 17.4546 14.7093 17.3226C15.6672 17.1937 16.195 16.9553 16.575 16.5752C16.955 16.1951 17.1927 15.6678 17.3216 14.7103C17.4537 13.7275 17.4558 12.4278 17.4558 10.58C17.4558 9.5378 17.4552 8.66995 17.4309 7.93501H3.72717Z" fill="currentColor"/>
</svg>
