<svg width="22" height="22" viewBox="0 0 22 22" fill="none" xmlns="http://www.w3.org/2000/svg">
<path id="Vector" d="M10.58 1.54291C11.274 1.54291 11.886 1.78074 12.5302 2.16886C13.1526 2.54391 13.8628 3.09618 14.7472 3.7841L14.7748 3.80563L16.5381 5.1772L17.307 5.7799C18.006 6.3415 18.4972 6.80664 18.7948 7.41495L18.8646 7.56906C19.1897 8.34449 19.1762 9.2418 19.1762 10.5706V12.8349C19.1762 14.247 19.1762 15.3743 19.0574 16.2583C18.9423 17.115 18.7059 17.8299 18.186 18.4065L18.0785 18.5193C17.4832 19.1145 16.731 19.3754 15.8174 19.4982C14.9335 19.6171 13.8061 19.6171 12.3941 19.6171H8.76584C7.35377 19.6171 6.22649 19.6171 5.34249 19.4982C4.4858 19.3831 3.77082 19.1467 3.19429 18.627L3.0815 18.5193C2.48628 17.9241 2.22537 17.1719 2.10254 16.2583C2.01233 15.5873 1.99069 14.7764 1.98544 13.8071L1.98372 12.7842V10.5706C1.98372 9.15319 1.96839 8.22619 2.36515 7.41495C2.76199 6.60389 3.50314 6.04729 4.62184 5.1772L6.38517 3.80563L7.02575 3.30882C7.63587 2.83906 8.15807 2.4531 8.62979 2.16886C9.27398 1.78073 9.88595 1.54293 10.58 1.54291ZM13.9206 14.4467C13.6403 14.0866 13.1359 14.0035 12.7574 14.2409L12.6834 14.2926C12.1361 14.7185 11.4014 14.9883 10.58 14.9883C9.86117 14.9882 9.20857 14.7821 8.69007 14.445L8.47654 14.2926L8.40249 14.2409C8.02396 14.0037 7.51965 14.0866 7.23928 14.4467C6.95894 14.8071 7.0021 15.3168 7.32538 15.6255L7.3934 15.684L7.55785 15.8062C8.3957 16.4031 9.44855 16.7516 10.58 16.7517C11.7866 16.7517 12.9041 16.3553 13.7665 15.684L13.8346 15.6255C14.158 15.3167 14.2012 14.8071 13.9206 14.4467Z" fill="currentColor"/>
</svg>
