<svg width="22" height="22" viewBox="0 0 22 22" fill="none" xmlns="http://www.w3.org/2000/svg">
<path id="Vector" d="M7.48268 2.10842C8.80355 1.49735 9.65793 1.10211 10.5799 1.10211C11.5019 1.10211 12.3562 1.49735 13.6771 2.10842L13.8171 2.17316L15.3727 2.89223C16.4855 3.40657 17.3888 3.82409 18.0079 4.22771C18.6274 4.63154 19.1761 5.15727 19.1761 5.95128C19.1761 6.74529 18.6274 7.27102 18.0079 7.67485C17.3888 8.07847 16.4856 8.49599 15.3727 9.01031L13.8171 9.7294L13.6771 9.79411C12.3562 10.4052 11.5019 10.8004 10.5799 10.8004C9.65793 10.8004 8.80355 10.4052 7.48266 9.79411L7.34268 9.7294L5.78705 9.01031C4.67426 8.49599 3.77094 8.07847 3.15181 7.67485C2.53237 7.27102 1.98364 6.74529 1.98364 5.95128C1.98364 5.15727 2.53237 4.63154 3.15181 4.22771C3.77094 3.82409 4.67426 3.40657 5.78705 2.89223L7.34268 2.17316L7.48268 2.10842Z" fill="currentColor"/>
<path id="Vector_2" fill-rule="evenodd" clip-rule="evenodd" d="M4.05151 13.5711C4.34729 13.952 4.28603 14.5068 3.91467 14.8101C3.7861 14.9151 3.73357 14.9851 3.71381 15.0188C3.7022 15.0387 3.70257 15.0432 3.70282 15.0463C3.70286 15.0467 3.70289 15.0471 3.70289 15.0476C3.70289 15.0537 3.70338 15.055 3.70377 15.0559C3.70372 15.0559 3.70382 15.0561 3.70377 15.0559C3.70472 15.0587 3.71119 15.0761 3.73565 15.1086C3.79096 15.1822 3.91034 15.298 4.15434 15.4588C4.65358 15.7879 5.43006 16.1533 6.58504 16.693L8.05055 17.3779C9.54173 18.0748 10.0549 18.2941 10.5799 18.2941C11.1049 18.2941 11.6181 18.0748 13.1092 17.3779L14.5747 16.693C15.7297 16.1533 16.5062 15.7878 17.0055 15.4588C17.2494 15.298 17.3688 15.1822 17.4242 15.1086C17.4486 15.0761 17.455 15.059 17.4559 15.0563C17.4558 15.0565 17.4559 15.0562 17.4559 15.0563C17.4563 15.0553 17.4569 15.0537 17.4569 15.0476C17.4569 15.0471 17.4569 15.0467 17.457 15.0463C17.4572 15.0432 17.4576 15.0387 17.446 15.0188C17.4262 14.9851 17.3737 14.9151 17.2451 14.8101C16.8738 14.5068 16.8125 13.952 17.1083 13.5711C17.4041 13.1903 17.9449 13.1275 18.3163 13.4309C18.7775 13.8076 19.1761 14.3257 19.1761 15.0476C19.1761 15.9597 18.5487 16.5376 17.9349 16.9423C17.3182 17.3487 16.4258 17.7658 15.3531 18.2671L13.8221 18.9825C13.7665 19.0085 13.7117 19.0341 13.6576 19.0594C12.3978 19.649 11.5249 20.0575 10.5799 20.0575C9.63492 20.0575 8.76197 19.649 7.50218 19.0594C7.44808 19.0341 7.39326 19.0085 7.33769 18.9825L5.80677 18.2671C4.734 17.7658 3.84159 17.3487 3.22487 16.9423C2.61101 16.5376 1.98364 15.9597 1.98364 15.0476C1.98364 14.3257 2.38234 13.8076 2.84354 13.4309C3.2149 13.1275 3.75572 13.1903 4.05151 13.5711Z" fill="currentColor"/>
<path id="Vector_3" fill-rule="evenodd" clip-rule="evenodd" d="M4.05151 9.04918C4.34729 9.43006 4.28603 9.9848 3.91467 10.2882C3.7861 10.3932 3.73357 10.4632 3.71381 10.4969C3.7022 10.5166 3.70257 10.5211 3.70282 10.5243C3.70286 10.5247 3.70289 10.5252 3.70289 10.5256C3.70289 10.5318 3.70338 10.533 3.70377 10.534C3.70372 10.5339 3.70382 10.5342 3.70377 10.534C3.70472 10.5367 3.71119 10.5541 3.73565 10.5866C3.79096 10.6602 3.91034 10.776 4.15434 10.9368C4.65358 11.2659 5.43006 11.6312 6.58504 12.1711L8.05055 12.8559C9.54173 13.5528 10.0549 13.7722 10.5799 13.7722C11.1049 13.7722 11.6181 13.5528 13.1092 12.8559L14.5747 12.1711C15.7297 11.6312 16.5062 11.2659 17.0055 10.9368C17.2494 10.776 17.3688 10.6602 17.4242 10.5866C17.4486 10.5541 17.455 10.5371 17.4559 10.5343C17.4558 10.5345 17.4559 10.5343 17.4559 10.5343C17.4563 10.5334 17.4569 10.5318 17.4569 10.5256C17.4569 10.5252 17.4569 10.5247 17.457 10.5243C17.4572 10.5211 17.4576 10.5166 17.446 10.4969C17.4262 10.4632 17.3737 10.3932 17.2451 10.2882C16.8738 9.9848 16.8125 9.43006 17.1083 9.04918C17.4041 8.66833 17.9449 8.6055 18.3163 8.90882C18.7775 9.28564 19.1761 9.80371 19.1761 10.5256C19.1761 11.4377 18.5487 12.0156 17.9349 12.4202C17.3182 12.8268 16.4258 13.2438 15.3531 13.7451L13.8221 14.4605C13.7665 14.4865 13.7117 14.5122 13.6576 14.5375C12.3978 15.127 11.5249 15.5355 10.5799 15.5355C9.63492 15.5355 8.76197 15.127 7.50218 14.5375C7.44808 14.5122 7.39326 14.4865 7.33769 14.4605L5.80677 13.7451C4.734 13.2438 3.84159 12.8268 3.22487 12.4202C2.61101 12.0156 1.98364 11.4377 1.98364 10.5256C1.98364 9.80371 2.38234 9.28564 2.84354 8.90882C3.2149 8.6055 3.75572 8.66833 4.05151 9.04918Z" fill="currentColor"/>
</svg>
