<svg width="22" height="22" viewBox="0 0 22 22" fill="none" xmlns="http://www.w3.org/2000/svg">
<path id="Vector" fill-rule="evenodd" clip-rule="evenodd" d="M10.58 2.86545C8.63231 2.86545 7.05337 4.44439 7.05337 6.39211V6.83295C7.05337 7.31987 6.65863 7.71461 6.17171 7.71461C5.68478 7.71461 5.29004 7.31987 5.29004 6.83295V6.39211C5.29004 3.47052 7.65845 1.10211 10.58 1.10211C13.5016 1.10211 15.87 3.47052 15.87 6.39211V6.83295C15.87 7.31987 15.4753 7.71461 14.9884 7.71461C14.5014 7.71461 14.1067 7.31987 14.1067 6.83295V6.39211C14.1067 4.44439 12.5277 2.86545 10.58 2.86545Z" fill="currentColor"/>
<path id="Vector_2" d="M4.44277 5.95124C4.00768 5.95118 3.60897 5.95112 3.28959 5.9996C2.93502 6.0534 2.56213 6.18235 2.2883 6.531C2.02107 6.87123 1.97342 7.26236 1.98528 7.62078C1.99636 7.95511 2.06513 8.36543 2.14258 8.8275L3.02679 14.1059C3.06213 14.3168 3.07978 14.4223 3.15376 14.4849C3.22773 14.5475 3.33466 14.5475 3.54852 14.5475H17.6113C17.8252 14.5475 17.932 14.5475 18.006 14.4849C18.08 14.4223 18.0977 14.3168 18.133 14.1059L19.0172 8.82759C19.0947 8.36546 19.1634 7.9551 19.1745 7.62078C19.1864 7.26236 19.1387 6.87123 18.8715 6.531C18.5977 6.18235 18.2247 6.0534 17.8702 5.9996C17.5508 5.95112 17.1521 5.95118 16.717 5.95124H4.44277Z" fill="currentColor"/>
<path id="Vector_3" d="M17.6313 16.935C17.6937 16.6505 17.7249 16.5083 17.6455 16.4095C17.566 16.3109 17.4174 16.3109 17.12 16.3109H4.03991C3.74255 16.3109 3.59387 16.3109 3.51446 16.4095C3.43505 16.5083 3.46623 16.6505 3.52856 16.935C3.57889 17.1646 3.63142 17.3773 3.6884 17.5735C3.88575 18.2532 4.15746 18.8158 4.64518 19.251C5.13739 19.6904 5.71778 19.8826 6.39657 19.9723C7.04375 20.0579 7.85156 20.0579 8.84131 20.0579H12.3186C13.3084 20.0579 14.1161 20.0579 14.7634 19.9723C15.4421 19.8826 16.0225 19.6904 16.5147 19.251C17.0025 18.8158 17.2742 18.2532 17.4715 17.5735C17.5285 17.3773 17.581 17.1646 17.6313 16.935Z" fill="currentColor"/>
</svg>
