<svg width="22" height="22" viewBox="0 0 22 22" fill="none" xmlns="http://www.w3.org/2000/svg">
<path id="Vector" d="M10.58 1.10211C15.8145 1.10211 20.0579 5.34552 20.0579 10.58C20.0579 15.8146 15.8145 20.0579 10.58 20.0579C5.34546 20.0579 1.10205 15.8146 1.10205 10.58C1.10205 5.34552 5.34546 1.10211 10.58 1.10211ZM10.58 3.96753C6.92798 3.96753 3.96747 6.92804 3.96747 10.58C3.96747 14.232 6.92798 17.1925 10.58 17.1925C14.2319 17.1925 17.1925 14.232 17.1925 10.58C17.1925 6.92804 14.2319 3.96753 10.58 3.96753ZM10.58 5.73086C13.2581 5.73086 15.4291 7.9019 15.4291 10.58C15.4291 13.2582 13.2581 15.4292 10.58 15.4292C7.90184 15.4292 5.7308 13.2582 5.7308 10.58C5.7308 7.9019 7.90184 5.73086 10.58 5.73086ZM10.58 8.8167C9.60608 8.8167 8.81663 9.60614 8.81663 10.58C8.81663 11.5539 9.60608 12.3434 10.58 12.3434C11.5539 12.3434 12.3433 11.5539 12.3433 10.58C12.3433 9.60614 11.5539 8.8167 10.58 8.8167Z" fill="currentColor"/>
</svg>
