<svg width="22" height="22" viewBox="0 0 22 22" fill="none" xmlns="http://www.w3.org/2000/svg">
<path id="Vector" fill-rule="evenodd" clip-rule="evenodd" d="M6.17176 6.17167C6.17176 4.71088 7.35597 3.52667 8.81676 3.52667C10.2776 3.52667 11.4618 4.71088 11.4618 6.17167V14.9885C11.4618 15.4754 11.8564 15.87 12.3433 15.87C12.8301 15.87 13.2247 15.4754 13.2247 14.9885V12.3433C13.2247 10.8825 14.409 9.69834 15.8697 9.69834H18.5147C19.0017 9.69834 19.3964 10.0931 19.3964 10.58C19.3964 11.067 19.0017 11.4617 18.5147 11.4617H15.8697C15.3828 11.4617 14.9881 11.8564 14.9881 12.3433V14.9885C14.9881 16.4492 13.804 17.6333 12.3433 17.6333C10.8826 17.6333 9.69843 16.4492 9.69843 14.9885V6.17167C9.69843 5.68475 9.30371 5.29001 8.81676 5.29001C8.32983 5.29001 7.93509 5.68475 7.93509 6.17167V8.81667C7.93509 10.2775 6.75088 11.4617 5.29009 11.4617H2.64509C2.15817 11.4617 1.76343 11.067 1.76343 10.58C1.76343 10.0931 2.15817 9.69834 2.64509 9.69834H5.29009C5.77702 9.69834 6.17176 9.30362 6.17176 8.81667V6.17167Z" fill="currentColor"/>
</svg>
