<svg width="22" height="22" viewBox="0 0 22 22" fill="none" xmlns="http://www.w3.org/2000/svg">
<path id="Vector" d="M14.122 2.05002C14.5848 2.11909 15.0885 2.28617 15.3773 2.78642C15.6653 3.28543 15.5601 3.80544 15.3907 4.24203C15.2278 4.66218 14.9388 5.1704 14.6023 5.76228L13.6316 7.46995C13.448 7.79289 13.3298 8.00181 13.2546 8.16193C13.1981 8.28209 13.1877 8.33133 13.186 8.33947C13.1889 8.4374 13.2406 8.52579 13.3211 8.57564C13.3298 8.57844 13.3775 8.59317 13.5054 8.60316C13.6806 8.61686 13.9464 8.61734 14.3166 8.61734C14.7475 8.61733 15.1091 8.61732 15.3911 8.63892C15.6637 8.6598 15.9849 8.70615 16.2541 8.8851C16.7768 9.23248 17.0486 9.85255 16.9533 10.4718C16.9042 10.7904 16.7234 11.0591 16.5554 11.2759C16.3817 11.5 16.1386 11.7689 15.8486 12.0895L10.9186 17.541C10.4664 18.0411 10.0857 18.4621 9.77597 18.7322C9.61851 18.8694 9.43239 19.0106 9.22484 19.0948C8.99614 19.1876 8.69442 19.2271 8.39474 19.0709C8.09574 18.9151 7.95523 18.646 7.89935 18.4069C7.84845 18.1892 7.85583 17.956 7.87666 17.7476C7.91763 17.3378 8.04039 16.7825 8.18634 16.1225L8.80197 13.3376C8.92411 12.7852 8.99861 12.4406 9.01765 12.1884C9.04384 11.9805 8.86248 11.8912 8.76851 11.8727C8.5203 11.8367 8.17037 11.8352 7.60713 11.8352H7.15213C6.54123 11.8352 6.00945 11.8352 5.59852 11.7741C5.16379 11.7093 4.69839 11.5537 4.40612 11.1016C4.11454 10.6506 4.16217 10.1623 4.27938 9.73838C4.39044 9.33678 4.60622 8.84878 4.85457 8.28719L6.48588 4.59745C6.71562 4.0778 6.9088 3.64082 7.10582 3.2987C7.31462 2.93612 7.55588 2.62779 7.90834 2.39754C8.26102 2.16714 8.63998 2.07048 9.0553 2.02582C9.44676 1.98374 9.92286 1.98375 10.4883 1.98377H12.4171C13.0947 1.98372 13.6776 1.98369 14.122 2.05002Z" fill="currentColor"/>
</svg>
